<?xml version="1.0" encoding="UTF-8"?>
<svg width="200" height="200" viewBox="0 0 200 200" fill="none" xmlns="http://www.w3.org/2000/svg">
  <!-- Background Circle -->
  <circle cx="100" cy="100" r="100" fill="url(#paint0_linear)"/>
  
  <!-- Brain Icon -->
  <path d="M136.69 85.5254C135.19 81.3254 132.19 78.0254 128.19 76.1254C126.59 75.4254 124.89 74.9254 123.19 74.6254C123.09 74.1254 122.99 73.5254 122.79 73.0254C121.69 68.9254 119.09 65.6254 115.39 63.7254C111.69 61.9254 107.29 62.0254 103.69 64.0254C103.39 64.2254 103.09 64.4254 102.79 64.6254C98.69 60.8254 92.99 59.6254 87.99 61.7254C82.89 63.8254 79.39 69.0254 79.29 74.6254C77.59 74.9254 75.89 75.4254 74.29 76.1254C70.39 78.0254 67.29 81.2254 65.79 85.5254C64.29 89.8254 64.59 94.5254 66.79 98.5254C67.39 99.6254 68.09 100.625 68.89 101.525C67.29 105.625 67.19 110.225 68.69 114.325C70.19 118.525 73.19 121.825 77.19 123.725C78.79 124.425 80.49 124.925 82.19 125.225C82.29 125.725 82.39 126.325 82.59 126.825C83.69 130.925 86.29 134.225 89.99 136.125C92.69 137.525 95.79 137.825 98.69 137.125C99.19 137.025 99.69 136.925 100.19 136.725C104.29 140.525 109.99 141.725 114.99 139.625C120.09 137.525 123.59 132.325 123.69 126.725C125.39 126.425 127.09 125.925 128.69 125.225C132.59 123.325 135.69 120.125 137.19 115.825C138.69 111.525 138.39 106.825 136.19 102.825C135.59 101.725 134.89 100.725 134.09 99.8254C135.69 95.7254 135.79 91.1254 134.29 87.0254" stroke="white" stroke-width="6" stroke-linecap="round" stroke-linejoin="round"/>
  
  <!-- Brain Connect Lines -->
  <path d="M107.69 74.6254C107.69 74.6254 107.69 65.4254 101.19 65.4254C94.69 65.4254 94.69 74.6254 94.69 74.6254" stroke="white" stroke-width="6" stroke-linecap="round" stroke-linejoin="round"/>
  <path d="M82.69 90.5254H77.69C76.59 90.5254 75.69 89.6254 75.69 88.5254C75.69 87.4254 76.59 86.5254 77.69 86.5254H82.69C83.79 86.5254 84.69 87.4254 84.69 88.5254C84.69 89.6254 83.79 90.5254 82.69 90.5254Z" fill="white"/>
  <path d="M124.19 90.5254H119.19C118.09 90.5254 117.19 89.6254 117.19 88.5254C117.19 87.4254 118.09 86.5254 119.19 86.5254H124.19C125.29 86.5254 126.19 87.4254 126.19 88.5254C126.19 89.6254 125.29 90.5254 124.19 90.5254Z" fill="white"/>
  <path d="M106.69 99.5254C106.09 100.025 105.39 100.425 104.69 100.625C103.89 100.825 103.09 100.925 102.29 100.825C101.49 100.725 100.69 100.525 99.99 100.125C99.29 99.8254 98.69 99.3254 98.19 98.7254" stroke="white" stroke-width="6" stroke-linecap="round" stroke-linejoin="round"/>
  <path d="M94.69 125.625C94.69 125.625 94.69 134.825 101.19 134.825C107.69 134.825 107.69 125.625 107.69 125.625" stroke="white" stroke-width="6" stroke-linecap="round" stroke-linejoin="round"/>
  <path d="M82.69 112.725H77.69C76.59 112.725 75.69 111.825 75.69 110.725C75.69 109.625 76.59 108.725 77.69 108.725H82.69C83.79 108.725 84.69 109.625 84.69 110.725C84.69 111.825 83.79 112.725 82.69 112.725Z" fill="white"/>
  <path d="M124.19 112.725H119.19C118.09 112.725 117.19 111.825 117.19 110.725C117.19 109.625 118.09 108.725 119.19 108.725H124.19C125.29 108.725 126.19 109.625 126.19 110.725C126.19 111.825 125.29 112.725 124.19 112.725Z" fill="white"/>
  
  <!-- Letter "E" Border -->
  <path d="M60 100C60 77.9086 77.9086 60 100 60C122.091 60 140 77.9086 140 100C140 122.091 122.091 140 100 140C77.9086 140 60 122.091 60 100Z" stroke="white" stroke-width="5"/>
  
  <!-- Letter "E" icon -->
  <path d="M86 80H114M86 100H108M86 120H114M86 80V120" stroke="white" stroke-width="8" stroke-linecap="round" stroke-linejoin="round"/>
  
  <!-- Gradient definition -->
  <defs>
    <linearGradient id="paint0_linear" x1="0" y1="0" x2="200" y2="200" gradientUnits="userSpaceOnUse">
      <stop offset="0" stop-color="#3B82F6"/>
      <stop offset="1" stop-color="#1E40AF"/>
    </linearGradient>
  </defs>
</svg>